<svg width="54" height="46" viewBox="0 0 54 46" fill="none" xmlns="http://www.w3.org/2000/svg">
<path d="M16.3051 6.57129C13.3997 6.57129 10.8202 8.38122 9.90149 11.0647L7.38592 18.4117L6.07584 17.6753C5.26872 17.2217 4.23666 17.4909 3.77068 18.2766C3.30468 19.0624 3.58122 20.0672 4.38834 20.5208L6.29654 21.5934L6.02338 22.3912C3.43695 23.7945 1.6875 26.484 1.6875 29.5713V39.4284C1.6875 43.0578 4.70958 45.9999 8.4375 45.9999C11.8797 45.9999 14.7201 43.4915 15.1353 40.2499H30.4935C29.8893 39.2329 29.421 38.1298 29.1128 36.9641H13.5C12.568 36.9641 11.8125 37.6997 11.8125 38.607V39.4284C11.8125 41.243 10.3014 42.7141 8.4375 42.7141C6.57354 42.7141 5.0625 41.243 5.0625 39.4284V29.5713C5.0625 26.8493 7.32906 24.6427 10.125 24.6427H32.384C33.7891 23.1982 35.5274 22.0642 37.4792 21.357H9.93507L13.1033 12.1037C13.5627 10.762 14.8524 9.857 16.3051 9.857H37.6949C39.1476 9.857 40.4373 10.762 40.8967 12.1037L43.8161 20.6302C45.1985 20.7921 46.5166 21.1573 47.738 21.6943L47.6761 21.5135L49.4421 20.5208C50.2493 20.0672 50.5258 19.0624 50.0598 18.2766C49.5938 17.4909 48.5618 17.2217 47.7546 17.6753L46.5867 18.3318L44.0985 11.0647C43.1797 8.38122 40.6003 6.57129 37.6949 6.57129H16.3051Z" fill="white"/>
<path d="M17.7188 31.2141C17.7188 32.1215 16.9633 32.857 16.0312 32.857H12.6562C11.7242 32.857 10.9688 32.1215 10.9688 31.2141C10.9688 30.3068 11.7242 29.5713 12.6562 29.5713H16.0312C16.9633 29.5713 17.7188 30.3068 17.7188 31.2141Z" fill="white"/>
<path fill-rule="evenodd" clip-rule="evenodd" d="M48.7249 32.0356C48.5654 31.4326 48.3203 30.8632 48.003 30.3402L49.347 29.0318C50.0059 28.3902 50.0059 27.35 49.347 26.7084C48.6879 26.0668 47.6195 26.0668 46.9604 26.7084L45.6164 28.0168C45.0793 27.7079 44.4943 27.4693 43.875 27.314V25.4641C43.875 24.5568 43.1195 23.8213 42.1875 23.8213C41.2555 23.8213 40.5 24.5568 40.5 25.4641V27.314C39.8807 27.4693 39.2957 27.7079 38.7586 28.0168L37.4145 26.7084C36.7555 26.0667 35.687 26.0667 35.028 26.7084C34.369 27.3499 34.369 28.3902 35.028 29.0317L36.372 30.3402C36.0547 30.8632 35.8096 31.4326 35.6501 32.0356H33.75C32.818 32.0356 32.0625 32.7711 32.0625 33.6784C32.0625 34.5858 32.818 35.3213 33.75 35.3213H35.6501C35.8096 35.9242 36.0547 36.4937 36.372 37.0166L35.028 38.3252C34.369 38.9667 34.369 40.007 35.028 40.6485C35.687 41.2901 36.7555 41.2901 37.4145 40.6485L38.7586 39.34C39.2957 39.649 39.8807 39.8876 40.5 40.0429V41.8927C40.5 42.8001 41.2555 43.5356 42.1875 43.5356C43.1195 43.5356 43.875 42.8001 43.875 41.8927V40.0429C44.4943 39.8876 45.0793 39.649 45.6164 39.34L46.9604 40.6485C47.6195 41.29 48.6879 41.29 49.347 40.6485C50.0059 40.0069 50.0059 38.9667 49.347 38.3251L48.003 37.0166C48.3203 36.4937 48.5654 35.9242 48.7249 35.3213H50.625C51.557 35.3213 52.3125 34.5858 52.3125 33.6784C52.3125 32.7711 51.557 32.0356 50.625 32.0356H48.7249ZM38.8125 33.6784C38.8125 35.4931 40.3236 36.9641 42.1875 36.9641C43.1166 36.9641 43.9581 36.5986 44.5684 36.0072L44.574 36.0018L44.5795 35.9963C45.187 35.4022 45.5625 34.583 45.5625 33.6784C45.5625 32.7739 45.187 31.9547 44.5796 31.3606L44.574 31.3551L44.5683 31.3496C43.958 30.7583 43.1166 30.3927 42.1875 30.3927C40.3236 30.3927 38.8125 31.8638 38.8125 33.6784Z" fill="white"/>
</svg>
