<svg width="46" height="47" viewBox="0 0 46 47" fill="none" xmlns="http://www.w3.org/2000/svg">
<path d="M3.59375 11.5694C3.59375 5.97854 8.09888 1.44629 13.6562 1.44629H29.4688C35.0261 1.44629 39.5312 5.97854 39.5312 11.5694V24.5848C39.5312 25.3835 38.8877 26.0309 38.0938 26.0309C37.2998 26.0309 36.6562 25.3835 36.6562 24.5848V11.5694C36.6562 7.57596 33.4383 4.3386 29.4688 4.3386H13.6562C9.68674 4.3386 6.46875 7.57596 6.46875 11.5694V34.7078C6.46875 38.7012 9.68674 41.9386 13.6562 41.9386H18.6875C19.4814 41.9386 20.125 42.586 20.125 43.3848C20.125 44.1835 19.4814 44.8309 18.6875 44.8309H13.6562C8.09888 44.8309 3.59375 40.2987 3.59375 34.7078V11.5694Z" fill="white"/>
<path d="M11.5 23.8612C11.5 23.0625 12.1436 22.415 12.9375 22.415H30.1875C30.9814 22.415 31.625 23.0625 31.625 23.8612C31.625 24.6599 30.9814 25.3073 30.1875 25.3073H12.9375C12.1436 25.3073 11.5 24.6599 11.5 23.8612Z" fill="white"/>
<path d="M12.9375 10.8457C12.1436 10.8457 11.5 11.4931 11.5 12.2919C11.5 13.0906 12.1436 13.738 12.9375 13.738H18.6875C19.4814 13.738 20.125 13.0906 20.125 12.2919C20.125 11.4931 19.4814 10.8457 18.6875 10.8457H12.9375Z" fill="white"/>
<path d="M11.5 18.077C11.5 17.2783 12.1436 16.6309 12.9375 16.6309H23C23.7939 16.6309 24.4375 17.2783 24.4375 18.077C24.4375 18.8757 23.7939 19.5232 23 19.5232H12.9375C12.1436 19.5232 11.5 18.8757 11.5 18.077Z" fill="white"/>
<path fill-rule="evenodd" clip-rule="evenodd" d="M28.9613 28.9229C27.5838 28.9229 26.3561 29.8063 25.9178 31.1236L25.3388 32.8642C24.7591 32.7606 24.1515 33.0244 23.8411 33.5675C23.4983 34.1672 23.6303 34.9107 24.119 35.3577C23.4283 36.0473 23 37.0022 23 38.0599V41.6096C23 43.3939 24.442 44.8305 26.2087 44.8305C27.5738 44.8305 28.7449 43.9729 29.2069 42.7599H36.1993C36.6614 43.9729 37.8325 44.8305 39.1975 44.8305C40.9643 44.8305 42.4062 43.3939 42.4062 41.6096V38.0599C42.4062 36.9875 41.9659 36.0208 41.2583 35.3292C41.722 34.8795 41.8415 34.1546 41.5059 33.5675C41.2054 33.042 40.6268 32.7779 40.0645 32.8553L39.4884 31.1236C39.0502 29.8063 37.8224 28.9229 36.4449 28.9229H28.9613ZM28.6442 32.0416L27.9104 34.2473H37.4958L36.7621 32.0416C36.7181 31.9094 36.5922 31.8152 36.4449 31.8152H28.9613C28.814 31.8152 28.6882 31.9094 28.6442 32.0416ZM25.875 38.0599C25.875 37.557 26.2834 37.1396 26.7991 37.1396H38.6072C39.1229 37.1396 39.5312 37.557 39.5312 38.0599V41.6096C39.5312 41.7857 39.3872 41.9382 39.1975 41.9382C39.0079 41.9382 38.8638 41.7857 38.8638 41.6096V41.3138C38.8638 40.5151 38.2203 39.8676 37.4263 39.8676H27.9799C27.186 39.8676 26.5424 40.5151 26.5424 41.3138V41.6096C26.5424 41.7857 26.3984 41.9382 26.2087 41.9382C26.019 41.9382 25.875 41.7857 25.875 41.6096V38.0599Z" fill="white"/>
</svg>
