<svg width="47" height="47" viewBox="0 0 47 47" fill="none" xmlns="http://www.w3.org/2000/svg">
<path d="M14.6875 4.40625C10.6317 4.40625 7.34375 7.69419 7.34375 11.75V21.2969C7.34375 22.1081 6.68617 22.7656 5.875 22.7656C5.06383 22.7656 4.40625 22.1081 4.40625 21.2969V11.75C4.40625 6.07182 9.00931 1.46875 14.6875 1.46875H35.25C40.9282 1.46875 45.5312 6.07182 45.5312 11.75V32.3125C45.5312 37.9907 40.9282 42.5938 35.25 42.5938H33.0469C32.2357 42.5938 31.5781 41.9362 31.5781 41.125C31.5781 40.3138 32.2357 39.6562 33.0469 39.6562H35.25C39.3059 39.6562 42.5938 36.3684 42.5938 32.3125V11.75C42.5938 7.69412 39.3058 4.40625 35.25 4.40625H14.6875Z" fill="white"/>
<path d="M29.7999 23.0082C29.2812 23.5901 28.3982 23.6654 27.7885 23.1797L21.6868 18.3195L19.8853 19.9984C19.6134 20.2518 19.2555 20.3926 18.8839 20.3926H14.6875C13.8763 20.3926 13.2188 19.7351 13.2188 18.9239C13.2188 18.1128 13.8763 17.4551 14.6875 17.4551H18.3056L20.6102 15.3074C21.1424 14.8113 21.9576 14.7797 22.5267 15.233L28.5318 20.0163L30.8804 17.3817C31.1591 17.0691 31.558 16.8903 31.9767 16.8903H35.6172C36.4284 16.8903 37.0859 17.5478 37.0859 18.359C37.0859 19.1702 36.4284 19.8278 35.6172 19.8278H32.6351L29.7999 23.0082Z" fill="white"/>
<path d="M7.26489 36.4512C6.45372 36.4512 5.79614 37.1087 5.79614 37.9199C5.79614 38.731 6.45372 39.3887 7.26489 39.3887H8.83854C9.64973 39.3887 10.3073 38.731 10.3073 37.9199C10.3073 37.1087 9.64973 36.4512 8.83854 36.4512H7.26489Z" fill="white"/>
<path d="M18.6741 36.4521C17.8629 36.4521 17.2053 37.1097 17.2053 37.9209C17.2053 38.732 17.8629 39.3896 18.6741 39.3896H20.2477C21.0589 39.3896 21.7164 38.732 21.7164 37.9209C21.7164 37.1097 21.0589 36.4521 20.2477 36.4521H18.6741Z" fill="white"/>
<path fill-rule="evenodd" clip-rule="evenodd" d="M8.96643 25.7031C7.34128 25.7031 5.86763 26.7191 5.33717 28.272L4.42932 30.9295C3.73919 30.6035 2.90425 30.862 2.52375 31.5374C2.1256 32.2441 2.37577 33.1398 3.0825 33.538L3.20369 33.6062C2.15113 34.4325 1.46875 35.7045 1.46875 37.1527V41.7592C1.46875 43.8763 3.21735 45.5312 5.29799 45.5312C7.00646 45.5312 8.49106 44.4154 8.96753 42.8441H18.9387C19.4152 44.4154 20.8998 45.5312 22.6082 45.5312C24.6889 45.5312 26.4375 43.8763 26.4375 41.7592V37.1527C26.4375 35.6894 25.7407 34.4058 24.6693 33.5803L24.7447 33.538C25.4515 33.1398 25.7016 32.2441 25.3035 31.5374C24.9355 30.8842 24.1426 30.621 23.4666 30.8991L22.5691 28.272C22.0386 26.7191 20.565 25.7031 18.9398 25.7031H8.96643ZM8.11697 29.2216L6.95841 32.6129H20.9478L19.7893 29.2216C19.6772 28.8934 19.3467 28.6406 18.9398 28.6406H8.96643C8.55951 28.6406 8.22904 28.8934 8.11697 29.2216ZM4.40625 37.1527C4.40625 36.3016 5.12359 35.5504 6.08482 35.5504H21.8214C22.7827 35.5504 23.5 36.3016 23.5 37.1527V41.7592C23.5 42.1863 23.1349 42.5938 22.6082 42.5938C22.0816 42.5938 21.7165 42.1863 21.7165 41.7592V41.3753C21.7165 40.5642 21.0589 39.9066 20.2477 39.9066H7.6585C6.84731 39.9066 6.18973 40.5642 6.18973 41.3753V41.7592C6.18973 42.1863 5.82467 42.5938 5.29799 42.5938C4.77131 42.5938 4.40625 42.1863 4.40625 41.7592V37.1527Z" fill="white"/>
</svg>
